<?xml version="1.0" standalone="no"?>
<svg viewBox="0 0 200 200" xmlns="http://www.w3.org/2000/svg">
  <path fill="#08BDBA" d="M43.2,-69.4C56.3,-58.9,67.5,-47.4,74.2,-33.6C81,-19.8,83.3,-3.7,80.6,11.2C77.9,26.2,70.1,40.1,60.3,53.4C50.5,66.7,38.8,79.5,23.9,86.2C8.9,92.8,-9.3,93.2,-25.2,87.7C-41.2,82.2,-54.8,70.8,-66.7,57.5C-78.6,44.3,-88.7,29.2,-91.8,12.7C-95,-3.8,-91.2,-21.9,-83,-37.1C-74.7,-52.2,-62.1,-64.6,-47.5,-74.4C-32.9,-84.2,-16.5,-91.6,-0.7,-90.5C15.1,-89.4,30.1,-79.9,43.2,-69.4Z" transform="translate(100 100)" />
</svg>
